<svg version="1.1" id="Layer_1" xmlns="http://www.w3.org/2000/svg" xmlns:xlink="http://www.w3.org/1999/xlink" x="0px" y="0px"
	 viewBox="0 0 512 512" style="enable-background:new 0 0 512 512;" xml:space="preserve">
<path style="fill:#F6F6F7;" d="M503.983,93.528c0-18.891-15.314-34.205-34.205-34.205H42.221c-18.891,0-34.205,15.314-34.205,34.205
	v410.455h319.599l176.367-176.367V93.528z"/>
<path style="fill:#D9DCDF;" d="M84.977,59.324H42.221c-18.891,0-34.205,15.314-34.205,34.205v410.455h42.756V93.528
	C50.772,74.638,66.086,59.324,84.977,59.324z"/>
<path style="fill:#FF8C78;" d="M503.983,93.528c0-18.891-15.314-34.205-34.205-34.205H42.221c-18.891,0-34.205,15.314-34.205,34.205
	v59.858h495.967V93.528z"/>
<path style="fill:#DF7A6E;" d="M84.977,59.324H42.221c-18.891,0-34.205,15.314-34.205,34.205v59.858h42.756V93.528
	C50.772,74.638,66.086,59.324,84.977,59.324z"/>
<g>
	<path style="fill:#B3B9BF;" d="M136.284,110.63L136.284,110.63c-9.446,0-17.102-7.656-17.102-17.102V25.119
		c0-9.446,7.656-17.102,17.102-17.102l0,0c9.446,0,17.102,7.656,17.102,17.102v68.409C153.386,102.974,145.73,110.63,136.284,110.63
		z"/>
	<path style="fill:#B3B9BF;" d="M256,110.63L256,110.63c-9.446,0-17.102-7.656-17.102-17.102V25.119
		c0-9.446,7.656-17.102,17.102-17.102l0,0c9.446,0,17.102,7.656,17.102,17.102v68.409C273.102,102.974,265.446,110.63,256,110.63z"
		/>
	<path style="fill:#B3B9BF;" d="M367.165,110.63L367.165,110.63c-9.446,0-17.102-7.656-17.102-17.102V25.119
		c0-9.446,7.656-17.102,17.102-17.102l0,0c9.446,0,17.102,7.656,17.102,17.102v68.409
		C384.267,102.974,376.611,110.63,367.165,110.63z"/>
</g>
<g>
	<path style="fill:#8E959F;" d="M136.284,93.528V25.119c0-6.327,3.444-11.837,8.551-14.796c-2.517-1.458-5.432-2.307-8.551-2.307
		c-9.446,0-17.102,7.656-17.102,17.102v68.409c0,9.446,7.656,17.102,17.102,17.102c3.119,0,6.034-0.849,8.551-2.307
		C139.728,105.365,136.284,99.855,136.284,93.528z"/>
	<path style="fill:#8E959F;" d="M256,93.528V25.119c0-6.327,3.444-11.837,8.551-14.796c-2.517-1.458-5.432-2.307-8.551-2.307
		c-9.446,0-17.102,7.656-17.102,17.102v68.409c0,9.446,7.656,17.102,17.102,17.102c3.119,0,6.034-0.849,8.551-2.307
		C259.444,105.365,256,99.855,256,93.528z"/>
	<path style="fill:#8E959F;" d="M367.165,93.528V25.119c0-6.327,3.444-11.837,8.551-14.796c-2.517-1.458-5.432-2.307-8.551-2.307
		c-9.446,0-17.102,7.656-17.102,17.102v68.409c0,9.446,7.656,17.102,17.102,17.102c3.119,0,6.034-0.849,8.551-2.307
		C370.609,105.365,367.165,99.855,367.165,93.528z"/>
</g>
<g>
	<path style="fill:#509FE8;" d="M179.038,461.228c-20.56,0-39.81-8.087-54.203-22.773c-6.197-6.325-6.096-16.476,0.228-22.673
		c6.325-6.199,16.476-6.096,22.673,0.228c8.312,8.482,19.428,13.152,31.301,13.152c24.164,0,43.825-19.66,43.825-43.825
		c0-24.164-19.66-43.825-43.825-43.825c-8.855,0-16.033-7.179-16.033-16.033s7.179-16.033,16.033-16.033
		c24.164,0,43.825-19.66,43.825-43.825s-19.66-43.825-43.825-43.825c-11.538,0-22.431,4.447-30.67,12.521
		c-6.326,6.197-16.477,6.094-22.673-0.23c-6.197-6.325-6.095-16.476,0.23-22.673c14.271-13.983,33.134-21.684,53.113-21.684
		c41.846,0,75.891,34.045,75.891,75.891c0,24.295-11.472,45.958-29.288,59.858c17.815,13.9,29.288,35.563,29.288,59.858
		C254.929,427.182,220.885,461.228,179.038,461.228z"/>
	<path style="fill:#509FE8;" d="M391.747,205.762c0-6.124-3.488-11.713-8.989-14.403c-5.501-2.689-12.053-2.013-16.887,1.747
		l-76.96,59.858c-6.991,5.436-8.249,15.51-2.812,22.499c5.436,6.991,15.511,8.249,22.499,2.812l51.084-39.732v197.031h32.067
		V205.762z"/>
</g>
<polygon style="fill:#D9DCDF;" points="327.616,503.983 503.983,327.616 327.616,327.616 "/>
<path d="M179.038,421.144c-9.7,0-18.784-3.816-25.575-10.747c-9.282-9.469-24.54-9.623-34.011-0.341
	c-9.47,9.283-9.623,24.54-0.341,34.01l0,0c15.913,16.235,37.195,25.178,59.928,25.178c46.267,0,83.908-37.641,83.908-83.908
	c0-22.787-9.059-44.126-25.141-59.858c16.083-15.732,25.141-37.071,25.141-59.858c0-46.267-37.641-83.908-83.908-83.908
	c-22.091,0-42.946,8.514-58.725,23.974c-9.47,9.281-9.625,24.539-0.344,34.011c9.282,9.47,24.538,9.624,34.01,0.345
	c6.733-6.597,15.633-10.23,25.059-10.23c19.745,0,35.808,16.063,35.808,35.808c0,19.745-16.063,35.808-35.808,35.808
	c-13.262,0-24.05,10.788-24.05,24.05s10.788,24.05,24.05,24.05c19.745,0,35.808,16.063,35.808,35.808
	C214.845,405.081,198.782,421.144,179.038,421.144z M179.038,333.495c-4.421,0-8.017-3.596-8.017-8.017s3.596-8.017,8.017-8.017
	c28.585,0,51.841-23.256,51.841-51.841s-23.256-51.841-51.841-51.841c-13.649,0-26.533,5.26-36.28,14.811
	c-3.158,3.093-8.243,3.042-11.337-0.114c-3.094-3.158-3.042-8.243,0.114-11.337c12.763-12.506,29.633-19.393,47.503-19.393
	c37.426,0,67.875,30.449,67.875,67.875c0,21.032-9.551,40.545-26.202,53.538c-4.048,3.16-4.048,9.482,0,12.641
	c16.652,12.992,26.202,32.506,26.202,53.538c0,37.426-30.449,67.875-67.875,67.875c-18.388,0-35.605-7.233-48.478-20.368
	c-2.752-2.856-3.046-7.399-0.594-10.544c2.935-3.766,8.706-4.087,12.045-0.68c9.833,10.033,22.981,15.558,37.026,15.558
	c28.585,0,51.841-23.256,51.841-51.841C230.879,356.751,207.623,333.495,179.038,333.495z"/>
<path d="M510.183,332.696c1.165-1.416,1.817-3.25,1.817-5.084V93.528c0-23.28-18.941-42.221-42.221-42.221h-77.495V25.119
	C392.284,11.268,381.016,0,367.165,0c-13.851,0-25.119,11.268-25.119,25.119v26.188h-60.927V25.119C281.119,11.268,269.851,0,256,0
	s-25.119,11.268-25.119,25.119v26.188h-69.478V25.119C161.403,11.268,150.135,0,136.284,0c-13.851,0-25.119,11.268-25.119,25.119
	v26.188H42.221C18.941,51.307,0,70.248,0,93.528v153.921c0,4.427,3.589,8.017,8.017,8.017s8.017-3.589,8.017-8.017v-86.046h402.438
	c4.427,0,8.017-3.589,8.017-8.017c0-4.427-3.589-8.017-8.017-8.017H16.033V93.528c0-14.44,11.748-26.188,26.188-26.188h68.944
	v26.188c0,13.851,11.268,25.119,25.119,25.119c13.851,0,25.119-11.268,25.119-25.119V67.34h69.478v26.188
	c0,13.851,11.268,25.119,25.119,25.119c13.851,0,25.119-11.268,25.119-25.119V67.34h60.927v26.188
	c0,13.851,11.268,25.119,25.119,25.119c13.851,0,25.119-11.268,25.119-25.119V67.34h77.495c14.44,0,26.188,11.748,26.188,26.188
	v51.841h-34.739c-4.427,0-8.017,3.589-8.017,8.017c0,4.427,3.589,8.017,8.017,8.017h34.739v158.196h-96.203V205.762
	c0-9.119-5.292-17.598-13.484-21.604c-8.19-4.004-18.133-2.976-25.331,2.621l-76.96,59.858c-10.468,8.142-12.36,23.282-4.219,33.749
	c8.044,10.343,23.395,12.273,33.749,4.219l38.146-29.668v64.663h-24.049c-4.427,0-8.017,3.589-8.017,8.017v168.351H16.033V290.205
	c0-4.427-3.589-8.017-8.017-8.017S0,285.777,0,290.205v213.779C0,508.411,3.589,512,8.017,512h319.599
	c2.101,0,4.184-0.863,5.67-2.349l176.364-176.365C509.838,333.098,510.015,332.902,510.183,332.696z M145.37,93.528
	c0,5.01-4.076,9.086-9.086,9.086c-5.01,0-9.086-4.076-9.086-9.086V25.119c0-5.01,4.076-9.086,9.086-9.086
	c5.01,0,9.086,4.076,9.086,9.086V93.528z M265.086,93.528c0,5.01-4.076,9.086-9.086,9.086c-5.01,0-9.086-4.076-9.086-9.086V25.119
	c0-5.01,4.076-9.086,9.086-9.086c5.01,0,9.086,4.076,9.086,9.086V93.528z M376.251,93.528c0,5.01-4.076,9.086-9.086,9.086
	s-9.086-4.076-9.086-9.086V25.119c0-5.01,4.076-9.086,9.086-9.086s9.086,4.076,9.086,9.086V93.528z M303.676,271.948
	c-3.446,2.68-8.576,2.045-11.249-1.407c-2.678-3.456-2.045-8.565,1.406-11.25l76.96-59.858c5.164-4.013,12.939-0.2,12.939,6.328
	v113.838h-16.033v-81.055c0-6.533-7.77-10.346-12.938-6.328L303.676,271.948z M484.63,335.633L335.633,484.63V335.633H484.63z"/>

</svg>
