<svg id="visual" viewBox="0 0 675 900" width="675" height="900" xmlns="http://www.w3.org/2000/svg" xmlns:xlink="http://www.w3.org/1999/xlink" version="1.1"><rect x="0" y="0" width="675" height="900" fill="#e0f9f7"></rect><path d="M0 772L18.8 771.3C37.7 770.7 75.3 769.3 112.8 779.2C150.3 789 187.7 810 225.2 813.8C262.7 817.7 300.3 804.3 337.8 782.8C375.3 761.3 412.7 731.7 450.2 732.5C487.7 733.3 525.3 764.7 562.8 770.3C600.3 776 637.7 756 656.3 746L675 736L675 901L656.3 901C637.7 901 600.3 901 562.8 901C525.3 901 487.7 901 450.2 901C412.7 901 375.3 901 337.8 901C300.3 901 262.7 901 225.2 901C187.7 901 150.3 901 112.8 901C75.3 901 37.7 901 18.8 901L0 901Z" fill="#fff" stroke-linecap="round" stroke-linejoin="miter"></path></svg>