<svg id="visual" viewBox="0 0 900 450" width="900" height="450" xmlns="http://www.w3.org/2000/svg" xmlns:xlink="http://www.w3.org/1999/xlink" version="1.1"><rect x="0" y="0" width="900" height="450" fill="#14131b"></rect><path d="M0 332L21.5 340.8C43 349.7 86 367.3 128.8 367C171.7 366.7 214.3 348.3 257.2 346.7C300 345 343 360 385.8 359.7C428.7 359.3 471.3 343.7 514.2 330.3C557 317 600 306 642.8 312C685.7 318 728.3 341 771.2 351.3C814 361.7 857 359.3 878.5 358.2L900 357L900 451L878.5 451C857 451 814 451 771.2 451C728.3 451 685.7 451 642.8 451C600 451 557 451 514.2 451C471.3 451 428.7 451 385.8 451C343 451 300 451 257.2 451C214.3 451 171.7 451 128.8 451C86 451 43 451 21.5 451L0 451Z" fill="#060411" stroke-linecap="round" stroke-linejoin="miter"></path></svg>