<svg id="visual" viewBox="0 0 675 900" width="675" height="900" xmlns="http://www.w3.org/2000/svg" xmlns:xlink="http://www.w3.org/1999/xlink" version="1.1"><rect x="0" y="0" width="675" height="900" fill="#14131b"></rect><path d="M0 666L16 683.5C32 701 64 736 96.2 735.2C128.3 734.3 160.7 697.7 192.8 694.3C225 691 257 721 289.2 720.5C321.3 720 353.7 689 385.8 662.3C418 635.7 450 613.3 482.2 625.2C514.3 637 546.7 683 578.8 703.7C611 724.3 643 719.7 659 717.3L675 715L675 901L659 901C643 901 611 901 578.8 901C546.7 901 514.3 901 482.2 901C450 901 418 901 385.8 901C353.7 901 321.3 901 289.2 901C257 901 225 901 192.8 901C160.7 901 128.3 901 96.2 901C64 901 32 901 16 901L0 901Z" fill="#060411" stroke-linecap="round" stroke-linejoin="miter"></path></svg>