<svg id="visual" viewBox="0 0 900 450" width="900" height="450" xmlns="http://www.w3.org/2000/svg" xmlns:xlink="http://www.w3.org/1999/xlink" version="1.1">
<path d="M0 381L21.5 380.2C43 379.3 86 377.7 128.8 376.8C171.7 376 214.3 376 257.2 380.2C300 384.3 343 392.7 385.8 392.5C428.7 392.3 471.3 383.7 514.2 384C557 384.3 600 393.7 642.8 394C685.7 394.3 728.3 385.7 771.2 383.3C814 381 857 385 878.5 387L900 389L900 451L878.5 451C857 451 814 451 771.2 451C728.3 451 685.7 451 642.8 451C600 451 557 451 514.2 451C471.3 451 428.7 451 385.8 451C343 451 300 451 257.2 451C214.3 451 171.7 451 128.8 451C86 451 43 451 21.5 451L0 451Z" 
fill="#D2F7F4">
</path>
<path d="M0 407L21.5 406C43 405 86 403 128.8 403.7C171.7 404.3 214.3 407.7 257.2 407C300 406.3 343 401.7 385.8 400.8C428.7 400 471.3 403 514.2 405.3C557 407.7 600 409.3 642.8 407.5C685.7 405.7 728.3 400.3 771.2 400.7C814 401 857 407 878.5 410L900 413L900 451L878.5 451C857 451 814 451 771.2 451C728.3 451 685.7 451 642.8 451C600 451 557 451 514.2 451C471.3 451 428.7 451 385.8 451C343 451 300 451 257.2 451C214.3 451 171.7 451 128.8 451C86 451 43 451 21.5 451L0 451Z" 
fill="#9BECE5">
</path>
<path d="M0 405L21.5 407.3C43 409.7 86 414.3 128.8 415.5C171.7 416.7 214.3 414.3 257.2 413.8C300 413.3 343 414.7 385.8 415.7C428.7 416.7 471.3 417.3 514.2 415C557 412.7 600 407.3 642.8 407.7C685.7 408 728.3 414 771.2 415C814 416 857 412 878.5 410L900 408L900 451L878.5 451C857 451 814 451 771.2 451C728.3 451 685.7 451 642.8 451C600 451 557 451 514.2 451C471.3 451 428.7 451 385.8 451C343 451 300 451 257.2 451C214.3 451 171.7 451 128.8 451C86 451 43 451 21.5 451L0 451Z" 
fill="#17599B">
</path>
<path d="M0 419L21.5 418.7C43 418.3 86 417.7 128.8 417.2C171.7 416.7 214.3 416.3 257.2 418.2C300 420 343 424 385.8 424.3C428.7 424.7 471.3 421.3 514.2 420.3C557 419.3 600 420.7 642.8 422.8C685.7 425 728.3 428 771.2 427C814 426 857 421 878.5 418.5L900 416L900 451L878.5 451C857 451 814 451 771.2 451C728.3 451 685.7 451 642.8 451C600 451 557 451 514.2 451C471.3 451 428.7 451 385.8 451C343 451 300 451 257.2 451C214.3 451 171.7 451 128.8 451C86 451 43 451 21.5 451L0 451Z" 
fill="#14131B">
</path>
<path d="M0 430L21.5 431.2C43 432.3 86 434.7 128.8 435C171.7 435.3 214.3 433.7 257.2 433.3C300 433 343 434 385.8 433.7C428.7 433.3 471.3 431.7 514.2 432C557 432.3 600 434.7 642.8 435.2C685.7 435.7 728.3 434.3 771.2 434.8C814 435.3 857 437.7 878.5 438.8L900 440L900 451L878.5 451C857 451 814 451 771.2 451C728.3 451 685.7 451 642.8 451C600 451 557 451 514.2 451C471.3 451 428.7 451 385.8 451C343 451 300 451 257.2 451C214.3 451 171.7 451 128.8 451C86 451 43 451 21.5 451L0 451Z" 
fill="#000000">
</path>
</svg>