<svg id="visual" viewBox="0 0 675 900" width="675" height="900" xmlns="http://www.w3.org/2000/svg" xmlns:xlink="http://www.w3.org/1999/xlink" version="1.1"><path d="M0 763L16 761.3C32 759.7 64 756.3 96.2 754.7C128.3 753 160.7 753 192.8 761.5C225 770 257 787 289.2 786.8C321.3 786.7 353.7 769.3 385.8 769.8C418 770.3 450 788.7 482.2 789.3C514.3 790 546.7 773 578.8 768.3C611 763.7 643 771.3 659 775.2L675 779L675 901L659 901C643 901 611 901 578.8 901C546.7 901 514.3 901 482.2 901C450 901 418 901 385.8 901C353.7 901 321.3 901 289.2 901C257 901 225 901 192.8 901C160.7 901 128.3 901 96.2 901C64 901 32 901 16 901L0 901Z" fill="#f6eab5"></path><path d="M0 815L16 813.2C32 811.3 64 807.7 96.2 809C128.3 810.3 160.7 816.7 192.8 815.2C225 813.7 257 804.3 289.2 802.7C321.3 801 353.7 807 385.8 811.7C418 816.3 450 819.7 482.2 816C514.3 812.3 546.7 801.7 578.8 802.3C611 803 643 815 659 821L675 827L675 901L659 901C643 901 611 901 578.8 901C546.7 901 514.3 901 482.2 901C450 901 418 901 385.8 901C353.7 901 321.3 901 289.2 901C257 901 225 901 192.8 901C160.7 901 128.3 901 96.2 901C64 901 32 901 16 901L0 901Z" fill="#f6e497"></path><path d="M0 812L16 816.7C32 821.3 64 830.7 96.2 833C128.3 835.3 160.7 830.7 192.8 829.5C225 828.3 257 830.7 289.2 832.5C321.3 834.3 353.7 835.7 385.8 831C418 826.3 450 815.7 482.2 816.3C514.3 817 546.7 829 578.8 830.8C611 832.7 643 824.3 659 820.2L675 816L675 901L659 901C643 901 611 901 578.8 901C546.7 901 514.3 901 482.2 901C450 901 418 901 385.8 901C353.7 901 321.3 901 289.2 901C257 901 225 901 192.8 901C160.7 901 128.3 901 96.2 901C64 901 32 901 16 901L0 901Z" fill="#f6de78"></path><path d="M0 839L16 838.5C32 838 64 837 96.2 836C128.3 835 160.7 834 192.8 837.5C225 841 257 849 289.2 849.5C321.3 850 353.7 843 385.8 841C418 839 450 842 482.2 846.5C514.3 851 546.7 857 578.8 855.2C611 853.3 643 843.7 659 838.8L675 834L675 901L659 901C643 901 611 901 578.8 901C546.7 901 514.3 901 482.2 901C450 901 418 901 385.8 901C353.7 901 321.3 901 289.2 901C257 901 225 901 192.8 901C160.7 901 128.3 901 96.2 901C64 901 32 901 16 901L0 901Z" fill="#f6d857"></path><path d="M0 860L16 862.3C32 864.7 64 869.3 96.2 870C128.3 870.7 160.7 867.3 192.8 867C225 866.7 257 869.3 289.2 868.8C321.3 868.3 353.7 864.7 385.8 865.2C418 865.7 450 870.3 482.2 871.3C514.3 872.3 546.7 869.7 578.8 870.7C611 871.7 643 876.3 659 878.7L675 881L675 901L659 901C643 901 611 901 578.8 901C546.7 901 514.3 901 482.2 901C450 901 418 901 385.8 901C353.7 901 321.3 901 289.2 901C257 901 225 901 192.8 901C160.7 901 128.3 901 96.2 901C64 901 32 901 16 901L0 901Z" fill="#f6d12e"></path></svg>