<svg id="visual" viewBox="0 0 900 250" width="900" height="250" xmlns="http://www.w3.org/2000/svg" xmlns:xlink="http://www.w3.org/1999/xlink" version="1.1"><path d="M0 155L21.5 153.7C43 152.3 86 149.7 128.8 148.3C171.7 147 214.3 147 257.2 153C300 159 343 171 385.8 171C428.7 171 471.3 159 514.2 159.3C557 159.7 600 172.3 642.8 172.7C685.7 173 728.3 161 771.2 157.7C814 154.3 857 159.7 878.5 162.3L900 165L900 251L878.5 251C857 251 814 251 771.2 251C728.3 251 685.7 251 642.8 251C600 251 557 251 514.2 251C471.3 251 428.7 251 385.8 251C343 251 300 251 257.2 251C214.3 251 171.7 251 128.8 251C86 251 43 251 21.5 251L0 251Z" fill="#f6eab5"></path><path d="M0 191L21.5 189.7C43 188.3 86 185.7 128.8 186.5C171.7 187.3 214.3 191.7 257.2 190.7C300 189.7 343 183.3 385.8 182.2C428.7 181 471.3 185 514.2 188.2C557 191.3 600 193.7 642.8 191.2C685.7 188.7 728.3 181.3 771.2 181.8C814 182.3 857 190.7 878.5 194.8L900 199L900 251L878.5 251C857 251 814 251 771.2 251C728.3 251 685.7 251 642.8 251C600 251 557 251 514.2 251C471.3 251 428.7 251 385.8 251C343 251 300 251 257.2 251C214.3 251 171.7 251 128.8 251C86 251 43 251 21.5 251L0 251Z" fill="#f6e497"></path><path d="M0 188L21.5 191.3C43 194.7 86 201.3 128.8 203C171.7 204.7 214.3 201.3 257.2 200.5C300 199.7 343 201.3 385.8 202.7C428.7 204 471.3 205 514.2 201.8C557 198.7 600 191.3 642.8 191.8C685.7 192.3 728.3 200.7 771.2 201.8C814 203 857 197 878.5 194L900 191L900 251L878.5 251C857 251 814 251 771.2 251C728.3 251 685.7 251 642.8 251C600 251 557 251 514.2 251C471.3 251 428.7 251 385.8 251C343 251 300 251 257.2 251C214.3 251 171.7 251 128.8 251C86 251 43 251 21.5 251L0 251Z" fill="#f6de78"></path><path d="M0 208L21.5 207.5C43 207 86 206 128.8 205.2C171.7 204.3 214.3 203.7 257.2 206.2C300 208.7 343 214.3 385.8 214.7C428.7 215 471.3 210 514.2 208.7C557 207.3 600 209.7 642.8 212.8C685.7 216 728.3 220 771.2 218.7C814 217.3 857 210.7 878.5 207.3L900 204L900 251L878.5 251C857 251 814 251 771.2 251C728.3 251 685.7 251 642.8 251C600 251 557 251 514.2 251C471.3 251 428.7 251 385.8 251C343 251 300 251 257.2 251C214.3 251 171.7 251 128.8 251C86 251 43 251 21.5 251L0 251Z" fill="#f6d857"></path><path d="M0 222L21.5 223.7C43 225.3 86 228.7 128.8 229.2C171.7 229.7 214.3 227.3 257.2 227C300 226.7 343 228.3 385.8 227.8C428.7 227.3 471.3 224.7 514.2 225C557 225.3 600 228.7 642.8 229.3C685.7 230 728.3 228 771.2 228.7C814 229.3 857 232.7 878.5 234.3L900 236L900 251L878.5 251C857 251 814 251 771.2 251C728.3 251 685.7 251 642.8 251C600 251 557 251 514.2 251C471.3 251 428.7 251 385.8 251C343 251 300 251 257.2 251C214.3 251 171.7 251 128.8 251C86 251 43 251 21.5 251L0 251Z" fill="#f6d12e"></path></svg>