<svg id="visual" viewBox="0 0 900 250" width="900" height="250" xmlns="http://www.w3.org/2000/svg" xmlns:xlink="http://www.w3.org/1999/xlink" version="1.1"><path d="M0 160L21.5 161.8C43 163.7 86 167.3 128.8 168.7C171.7 170 214.3 169 257.2 166.8C300 164.7 343 161.3 385.8 163.5C428.7 165.7 471.3 173.3 514.2 173.8C557 174.3 600 167.7 642.8 168.2C685.7 168.7 728.3 176.3 771.2 175.3C814 174.3 857 164.7 878.5 159.8L900 155L900 251L878.5 251C857 251 814 251 771.2 251C728.3 251 685.7 251 642.8 251C600 251 557 251 514.2 251C471.3 251 428.7 251 385.8 251C343 251 300 251 257.2 251C214.3 251 171.7 251 128.8 251C86 251 43 251 21.5 251L0 251Z" fill="#f6d12e"></path><path d="M0 196L21.5 196C43 196 86 196 128.8 195.3C171.7 194.7 214.3 193.3 257.2 192.2C300 191 343 190 385.8 187.5C428.7 185 471.3 181 514.2 177.7C557 174.3 600 171.7 642.8 172.5C685.7 173.3 728.3 177.7 771.2 180C814 182.3 857 182.7 878.5 182.8L900 183L900 251L878.5 251C857 251 814 251 771.2 251C728.3 251 685.7 251 642.8 251C600 251 557 251 514.2 251C471.3 251 428.7 251 385.8 251C343 251 300 251 257.2 251C214.3 251 171.7 251 128.8 251C86 251 43 251 21.5 251L0 251Z" fill="#f6d857"></path><path d="M0 211L21.5 207.5C43 204 86 197 128.8 192.5C171.7 188 214.3 186 257.2 184.7C300 183.3 343 182.7 385.8 184.8C428.7 187 471.3 192 514.2 196.8C557 201.7 600 206.3 642.8 209C685.7 211.7 728.3 212.3 771.2 209.7C814 207 857 201 878.5 198L900 195L900 251L878.5 251C857 251 814 251 771.2 251C728.3 251 685.7 251 642.8 251C600 251 557 251 514.2 251C471.3 251 428.7 251 385.8 251C343 251 300 251 257.2 251C214.3 251 171.7 251 128.8 251C86 251 43 251 21.5 251L0 251Z" fill="#f6de78"></path><path d="M0 207L21.5 206.7C43 206.3 86 205.7 128.8 205.2C171.7 204.7 214.3 204.3 257.2 207C300 209.7 343 215.3 385.8 218.3C428.7 221.3 471.3 221.7 514.2 219.7C557 217.7 600 213.3 642.8 210.2C685.7 207 728.3 205 771.2 207.2C814 209.3 857 215.7 878.5 218.8L900 222L900 251L878.5 251C857 251 814 251 771.2 251C728.3 251 685.7 251 642.8 251C600 251 557 251 514.2 251C471.3 251 428.7 251 385.8 251C343 251 300 251 257.2 251C214.3 251 171.7 251 128.8 251C86 251 43 251 21.5 251L0 251Z" fill="#f6e497"></path><path d="M0 234L21.5 233.7C43 233.3 86 232.7 128.8 231.8C171.7 231 214.3 230 257.2 228.7C300 227.3 343 225.7 385.8 226.8C428.7 228 471.3 232 514.2 232.2C557 232.3 600 228.7 642.8 226C685.7 223.3 728.3 221.7 771.2 221.2C814 220.7 857 221.3 878.5 221.7L900 222L900 251L878.5 251C857 251 814 251 771.2 251C728.3 251 685.7 251 642.8 251C600 251 557 251 514.2 251C471.3 251 428.7 251 385.8 251C343 251 300 251 257.2 251C214.3 251 171.7 251 128.8 251C86 251 43 251 21.5 251L0 251Z" fill="#f6eab5"></path></svg>