<svg id="visual" viewBox="0 0 900 450" width="900" height="450" xmlns="http://www.w3.org/2000/svg" xmlns:xlink="http://www.w3.org/1999/xlink" version="1.1">
<path d="M0 415L21.5 414.5C43 414 86 413 128.8 412.5C171.7 412 214.3 412 257.2 414.2C300 416.3 343 420.7 385.8 420.7C428.7 420.7 471.3 416.3 514.2 416.5C557 416.7 600 421.3 642.8 421.5C685.7 421.7 728.3 417.3 771.2 416.2C814 415 857 417 878.5 418L900 419L900 451L878.5 451C857 451 814 451 771.2 451C728.3 451 685.7 451 642.8 451C600 451 557 451 514.2 451C471.3 451 428.7 451 385.8 451C343 451 300 451 257.2 451C214.3 451 171.7 451 128.8 451C86 451 43 451 21.5 451L0 451Z" 
fill="#14131B">
</path>
<path d="M0 428L21.5 427.5C43 427 86 426 128.8 426.3C171.7 426.7 214.3 428.3 257.2 428C300 427.7 343 425.3 385.8 425C428.7 424.7 471.3 426.3 514.2 427.5C557 428.7 600 429.3 642.8 428.3C685.7 427.3 728.3 424.7 771.2 424.8C814 425 857 428 878.5 429.5L900 431L900 451L878.5 451C857 451 814 451 771.2 451C728.3 451 685.7 451 642.8 451C600 451 557 451 514.2 451C471.3 451 428.7 451 385.8 451C343 451 300 451 257.2 451C214.3 451 171.7 451 128.8 451C86 451 43 451 21.5 451L0 451Z" 
fill="#244260">
</path>
<path d="M0 427L21.5 428.2C43 429.3 86 431.7 128.8 432.3C171.7 433 214.3 432 257.2 431.7C300 431.3 343 431.7 385.8 432C428.7 432.3 471.3 432.7 514.2 431.5C557 430.3 600 427.7 642.8 428C685.7 428.3 728.3 431.7 771.2 432.2C814 432.7 857 430.3 878.5 429.2L900 428L900 451L878.5 451C857 451 814 451 771.2 451C728.3 451 685.7 451 642.8 451C600 451 557 451 514.2 451C471.3 451 428.7 451 385.8 451C343 451 300 451 257.2 451C214.3 451 171.7 451 128.8 451C86 451 43 451 21.5 451L0 451Z" 
fill="#17599B">
</path>
<path d="M0 434L21.5 433.8C43 433.7 86 433.3 128.8 433C171.7 432.7 214.3 432.3 257.2 433.3C300 434.3 343 436.7 385.8 436.8C428.7 437 471.3 435 514.2 434.5C557 434 600 435 642.8 436.2C685.7 437.3 728.3 438.7 771.2 438.2C814 437.7 857 435.3 878.5 434.2L900 433L900 451L878.5 451C857 451 814 451 771.2 451C728.3 451 685.7 451 642.8 451C600 451 557 451 514.2 451C471.3 451 428.7 451 385.8 451C343 451 300 451 257.2 451C214.3 451 171.7 451 128.8 451C86 451 43 451 21.5 451L0 451Z" 
fill="#24859B">
</path>
<path d="M0 439L21.5 439.7C43 440.3 86 441.7 128.8 441.8C171.7 442 214.3 441 257.2 440.8C300 440.7 343 441.3 385.8 441.2C428.7 441 471.3 440 514.2 440.2C557 440.3 600 441.7 642.8 442C685.7 442.3 728.3 441.7 771.2 441.8C814 442 857 443 878.5 443.5L900 444L900 451L878.5 451C857 451 814 451 771.2 451C728.3 451 685.7 451 642.8 451C600 451 557 451 514.2 451C471.3 451 428.7 451 385.8 451C343 451 300 451 257.2 451C214.3 451 171.7 451 128.8 451C86 451 43 451 21.5 451L0 451Z" 
fill="#88A7B2">
</path>
</svg>